HIERARCHY
ROOT Hips
{
  OFFSET -395.107 72.9688 1341.08
  CHANNELS 6 Xposition Yposition Zposition Zrotation Xrotation Yrotation
  JOINT Spine
  {
    OFFSET 0 8 0
    CHANNELS 6 Xposition Yposition Zposition Zrotation Xrotation Yrotation
    JOINT Spine1
    {
      OFFSET 0 8 0
      CHANNELS 6 Xposition Yposition Zposition Zrotation Xrotation Yrotation
      JOINT Spine2
      {
        OFFSET 0 8 0
        CHANNELS 6 Xposition Yposition Zposition Zrotation Xrotation Yrotation
        JOINT Spine3
        {
          OFFSET 0 8 0
          CHANNELS 6 Xposition Yposition Zposition Zrotation Xrotation Yrotation
          JOINT Neck
          {
            OFFSET 0 17 0
            CHANNELS 6 Xposition Yposition Zposition Zrotation Xrotation Yrotation
            JOINT Head
            {
              OFFSET 0 10.8 0
              CHANNELS 6 Xposition Yposition Zposition Zrotation Xrotation Yrotation
              End Site
              {
                OFFSET 0 20.25 0
              }
            }
          }
          JOINT LeftShoulder
          {
            OFFSET 5 17 0
            CHANNELS 6 Xposition Yposition Zposition Zrotation Xrotation Yrotation
            JOINT LeftShoulder2
            {
              OFFSET 6.45 0 0
              CHANNELS 6 Xposition Yposition Zposition Zrotation Xrotation Yrotation
              JOINT LeftArm
              {
                OFFSET 6.45 0 0
                CHANNELS 6 Xposition Yposition Zposition Zrotation Xrotation Yrotation
                JOINT LeftForeArm
                {
                  OFFSET 0 -32.4 -2
                  CHANNELS 6 Xposition Yposition Zposition Zrotation Xrotation Yrotation
                  JOINT LeftHand
                  {
                    OFFSET 0 -25.65 2
                    CHANNELS 6 Xposition Yposition Zposition Zrotation Xrotation Yrotation
                    JOINT LeftHandThumb1
                    {
                      OFFSET -0.5 -1.5 2.65
                      CHANNELS 6 Xposition Yposition Zposition Zrotation Xrotation Yrotation
                      JOINT LeftHandThumb2
                      {
                        OFFSET 0 -3.8 3.7
                        CHANNELS 6 Xposition Yposition Zposition Zrotation Xrotation Yrotation
                        JOINT LeftHandThumb3
                        {
                          OFFSET 0 -3 2.7
                          CHANNELS 6 Xposition Yposition Zposition Zrotation Xrotation Yrotation
                          End Site
                          {
                            OFFSET 0 -2.3 1.8
                          }
                        }
                      }
                    }
                    JOINT LeftHandIndex
                    {
                      OFFSET 0 -1.9 1.6
                      CHANNELS 6 Xposition Yposition Zposition Zrotation Xrotation Yrotation
                      JOINT LeftHandIndex1
                      {
                        OFFSET 0 -8.3 1.9
                        CHANNELS 6 Xposition Yposition Zposition Zrotation Xrotation Yrotation
                        JOINT LeftHandIndex2
                        {
                          OFFSET 0 -4.5 0
                          CHANNELS 6 Xposition Yposition Zposition Zrotation Xrotation Yrotation
                          JOINT LeftHandIndex3
                          {
                            OFFSET 0 -3.4 0
                            CHANNELS 6 Xposition Yposition Zposition Zrotation Xrotation Yrotation
                            End Site
                            {
                              OFFSET 0 -2.6 0
                            }
                          }
                        }
                      }
                    }
                    JOINT LeftHandMiddle
                    {
                      OFFSET -0.25 -2.2 0.4
                      CHANNELS 6 Xposition Yposition Zposition Zrotation Xrotation Yrotation
                      JOINT LeftHandMiddle1
                      {
                        OFFSET 0 -8.3 1
                        CHANNELS 6 Xposition Yposition Zposition Zrotation Xrotation Yrotation
                        JOINT LeftHandMiddle2
                        {
                          OFFSET 0 -4.65 0
                          CHANNELS 6 Xposition Yposition Zposition Zrotation Xrotation Yrotation
                          JOINT LeftHandMiddle3
                          {
                            OFFSET 0 -3.3 0
                            CHANNELS 6 Xposition Yposition Zposition Zrotation Xrotation Yrotation
                            End Site
                            {
                              OFFSET 0 -2.7 0
                            }
                          }
                        }
                      }
                    }
                    JOINT LeftHandRing
                    {
                      OFFSET -0.5 -2.15 -0.8
                      CHANNELS 6 Xposition Yposition Zposition Zrotation Xrotation Yrotation
                      JOINT LeftHandRing1
                      {
                        OFFSET 0 -7.75 -0.2
                        CHANNELS 6 Xposition Yposition Zposition Zrotation Xrotation Yrotation
                        JOINT LeftHandRing2
                        {
                          OFFSET 0 -3.8 0
                          CHANNELS 6 Xposition Yposition Zposition Zrotation Xrotation Yrotation
                          JOINT LeftHandRing3
                          {
                            OFFSET 0 -3.4 0
                            CHANNELS 6 Xposition Yposition Zposition Zrotation Xrotation Yrotation
                            End Site
                            {
                              OFFSET 0 -2.6 0
                            }
                          }
                        }
                      }
                    }
                    JOINT LeftHandPinky
                    {
                      OFFSET -0.75 -1.75 -1.85
                      CHANNELS 6 Xposition Yposition Zposition Zrotation Xrotation Yrotation
                      JOINT LeftHandPinky1
                      {
                        OFFSET 0 -7.15 -1
                        CHANNELS 6 Xposition Yposition Zposition Zrotation Xrotation Yrotation
                        JOINT LeftHandPinky2
                        {
                          OFFSET 0 -3 0
                          CHANNELS 6 Xposition Yposition Zposition Zrotation Xrotation Yrotation
                          JOINT LeftHandPinky3
                          {
                            OFFSET 0 -2.35 0
                            CHANNELS 6 Xposition Yposition Zposition Zrotation Xrotation Yrotation
                            End Site
                            {
                              OFFSET 0 -2.1 0
                            }
                          }
                        }
                      }
                    }
                  }
                }
              }
            }
          }
          JOINT RightShoulder
          {
            OFFSET -5 17 0
            CHANNELS 6 Xposition Yposition Zposition Zrotation Xrotation Yrotation
            JOINT RightShoulder2
            {
              OFFSET -6.45 0 0
              CHANNELS 6 Xposition Yposition Zposition Zrotation Xrotation Yrotation
              JOINT RightArm
              {
                OFFSET -6.45 0 0
                CHANNELS 6 Xposition Yposition Zposition Zrotation Xrotation Yrotation
                JOINT RightForeArm
                {
                  OFFSET 0 -32.4 -2
                  CHANNELS 6 Xposition Yposition Zposition Zrotation Xrotation Yrotation
                  JOINT RightHand
                  {
                    OFFSET 0 -25.65 2
                    CHANNELS 6 Xposition Yposition Zposition Zrotation Xrotation Yrotation
                    JOINT RightHandThumb1
                    {
                      OFFSET 0.5 -1.5 2.65
                      CHANNELS 6 Xposition Yposition Zposition Zrotation Xrotation Yrotation
                      JOINT RightHandThumb2
                      {
                        OFFSET 0 -3.8 3.7
                        CHANNELS 6 Xposition Yposition Zposition Zrotation Xrotation Yrotation
                        JOINT RightHandThumb3
                        {
                          OFFSET 0 -3 2.7
                          CHANNELS 6 Xposition Yposition Zposition Zrotation Xrotation Yrotation
                          End Site
                          {
                            OFFSET 0 -2.3 1.8
                          }
                        }
                      }
                    }
                    JOINT RightHandIndex
                    {
                      OFFSET 0 -1.9 1.6
                      CHANNELS 6 Xposition Yposition Zposition Zrotation Xrotation Yrotation
                      JOINT RightHandIndex1
                      {
                        OFFSET 0 -8.3 1.9
                        CHANNELS 6 Xposition Yposition Zposition Zrotation Xrotation Yrotation
                        JOINT RightHandIndex2
                        {
                          OFFSET 0 -4.5 0
                          CHANNELS 6 Xposition Yposition Zposition Zrotation Xrotation Yrotation
                          JOINT RightHandIndex3
                          {
                            OFFSET 0 -3.4 0
                            CHANNELS 6 Xposition Yposition Zposition Zrotation Xrotation Yrotation
                            End Site
                            {
                              OFFSET 0 -2.6 0
                            }
                          }
                        }
                      }
                    }
                    JOINT RightHandMiddle
                    {
                      OFFSET 0.25 -2.2 0.4
                      CHANNELS 6 Xposition Yposition Zposition Zrotation Xrotation Yrotation
                      JOINT RightHandMiddle1
                      {
                        OFFSET 0 -8.3 1
                        CHANNELS 6 Xposition Yposition Zposition Zrotation Xrotation Yrotation
                        JOINT RightHandMiddle2
                        {
                          OFFSET 0 -4.65 0
                          CHANNELS 6 Xposition Yposition Zposition Zrotation Xrotation Yrotation
                          JOINT RightHandMiddle3
                          {
                            OFFSET 0 -3.3 0
                            CHANNELS 6 Xposition Yposition Zposition Zrotation Xrotation Yrotation
                            End Site
                            {
                              OFFSET 0 -2.7 0
                            }
                          }
                        }
                      }
                    }
                    JOINT RightHandRing
                    {
                      OFFSET 0.5 -2.15 -0.8
                      CHANNELS 6 Xposition Yposition Zposition Zrotation Xrotation Yrotation
                      JOINT RightHandRing1
                      {
                        OFFSET 0 -7.75 -0.2
                        CHANNELS 6 Xposition Yposition Zposition Zrotation Xrotation Yrotation
                        JOINT RightHandRing2
                        {
                          OFFSET 0 -3.8 0
                          CHANNELS 6 Xposition Yposition Zposition Zrotation Xrotation Yrotation
                          JOINT RightHandRing3
                          {
                            OFFSET 0 -3.4 0
                            CHANNELS 6 Xposition Yposition Zposition Zrotation Xrotation Yrotation
                            End Site
                            {
                              OFFSET 0 -2.6 0
                            }
                          }
                        }
                      }
                    }
                    JOINT RightHandPinky
                    {
                      OFFSET 0.75 -1.75 -1.85
                      CHANNELS 6 Xposition Yposition Zposition Zrotation Xrotation Yrotation
                      JOINT RightHandPinky1
                      {
                        OFFSET 0 -7.15 -1
                        CHANNELS 6 Xposition Yposition Zposition Zrotation Xrotation Yrotation
                        JOINT RightHandPinky2
                        {
                          OFFSET 0 -3 0
                          CHANNELS 6 Xposition Yposition Zposition Zrotation Xrotation Yrotation
                          JOINT RightHandPinky3
                          {
                            OFFSET 0 -2.35 0
                            CHANNELS 6 Xposition Yposition Zposition Zrotation Xrotation Yrotation
                            End Site
                            {
                              OFFSET 0 -2.1 0
                            }
                          }
                        }
                      }
                    }
                  }
                }
              }
            }
          }
        }
      }
    }
  }
  JOINT LeftUpLeg
  {
    OFFSET 8 0 0
    CHANNELS 6 Xposition Yposition Zposition Zrotation Xrotation Yrotation
    JOINT LeftLeg
    {
      OFFSET 0 -45 -1
      CHANNELS 6 Xposition Yposition Zposition Zrotation Xrotation Yrotation
      JOINT LeftFoot
      {
        OFFSET 0 -41 -2
        CHANNELS 6 Xposition Yposition Zposition Zrotation Xrotation Yrotation
        JOINT LeftToeBase
        {
          OFFSET 0 -7.5 12.5
          CHANNELS 6 Xposition Yposition Zposition Zrotation Xrotation Yrotation
          JOINT LeftFootToe
          {
            OFFSET 0 0 4
            CHANNELS 6 Xposition Yposition Zposition Zrotation Xrotation Yrotation
            End Site
            {
              OFFSET 0 0 0
            }
          }
        }
      }
    }
  }
  JOINT RightUpLeg
  {
    OFFSET -8 0 0
    CHANNELS 6 Xposition Yposition Zposition Zrotation Xrotation Yrotation
    JOINT RightLeg
    {
      OFFSET 0 -45 -1
      CHANNELS 6 Xposition Yposition Zposition Zrotation Xrotation Yrotation
      JOINT RightFoot
      {
        OFFSET 0 -41 -2
        CHANNELS 6 Xposition Yposition Zposition Zrotation Xrotation Yrotation
        JOINT RightToeBase
        {
          OFFSET 0 -7.5 12.5
          CHANNELS 6 Xposition Yposition Zposition Zrotation Xrotation Yrotation
          JOINT RightFootToe
          {
            OFFSET 0 0 4
            CHANNELS 6 Xposition Yposition Zposition Zrotation Xrotation Yrotation
            End Site
            {
              OFFSET 0 0 0
            }
          }
        }
      }
    }
  }
}
MOTION
Frames:	3
Frame Time:	0.0111111
-386.76 89.762 1305.03 1.10905 -1.48933 149.352 0 8 2.27374e-13 11.3764 16.788 9.22451 -1.7053e-13 8 0 2.10838 6.60532 2.96722 0 8 -2.27374e-13 1.09648 3.29494 1.51204 0 8 0 1.09417 3.28771 1.5088 1.13687e-13 17 0 -0.624703 6.21073 -2.39364 0 10.8 4.54747e-13 -1.06238 14.5599 -5.56843 5 17 0 -1.25369 -1.69605 1.51262 6.45 -5.68434e-14 0 0.415649 1.42539 3.29023 6.45 5.68434e-14 2.27374e-13 23.2455 44.8804 16.0085 8.52651e-14 -32.4 -2 -119.917 -39.5691 -159.353 1.13687e-13 -25.65 2 -5.07861 -2.13636 -12.2344 -0.5 -1.5 2.65 10.9627 -76.0905 144.329 2.84217e-14 -3.8 3.7 0.0467789 2.90128 -3.89143e-05 0 -3 2.7 -0.00269046 -0.179196 0.00477268 0 -1.9 1.6 -9.54166e-15 2.38542e-15 1.59028e-15 0 -8.3 1.9 -2.11921 8.0393 0.461523 2.27374e-13 -4.5 0 -69.5804 -0.00503634 -0.00837043 0 -3.4 0 -51.4879 0.0117182 0.000725604 -0.25 -2.2 0.4 -9.54166e-15 2.38542e-15 1.59028e-15 -2.27374e-13 -8.3 1 -15.6323 7.68306 2.18324 2.27374e-13 -4.65 5.68434e-14 -79.0302 -0.0228169 -0.0123819 -1.13687e-13 -3.3 0 -90.0002 4.21423e-14 -5.80451e-14 -0.5 -2.15 -0.8 -9.54166e-15 2.38542e-15 1.59028e-15 -2.27374e-13 -7.75 -0.2 -69.8139 7.52068 12.9004 0 -3.8 -1.13687e-13 -1.77349 -0.000191692 -0.000606073 0 -3.4 5.68434e-14 -90.0002 -0.001297 -3.57812e-14 -0.75 -1.75 -1.85 -9.54166e-15 2.38542e-15 1.59028e-15 0 -7.15 -1 -57.3936 15.0895 12.4835 0 -3 0 -73.9699 -0.125776 -0.0444023 5.68434e-14 -2.35 -1.7053e-13 -90.0002 1.56046e-14 3.18055e-15 -5 17 0 3.51534 -0.181615 5.16831 -6.45 0 0 -1.68696 -0.803587 -5.25886 -6.45 0 -2.27374e-13 -38.3497 -13.6786 -6.01043 2.84217e-14 -32.4 -2 -1.24174 -21.1212 4.14228 1.13687e-13 -25.65 2 -8.99885 -27.0836 25.8649 0.5 -1.5 2.65 7.3947 13.1822 6.59584 1.13687e-13 -3.8 3.7 1.80924 29.6009 -0.642914 1.13687e-13 -3 2.7 0.323865 9.92379 -0.153822 0 -1.9 1.6 4.77083e-15 9.54166e-15 -0 0 -8.3 1.9 0.23568 4.38809 -0.0340275 1.13687e-13 -4.5 1.13687e-13 8.76821 0.208754 -0.0735756 1.13687e-13 -3.4 0 7.54565 0.163126 -0.0814817 0.25 -2.2 0.4 4.77083e-15 9.54166e-15 -0 -1.13687e-13 -8.3 1 6.10652 6.21282 -0.584172 0 -4.65 -1.13687e-13 3.27461 0.138885 -0.0445562 0 -3.3 0 2.95436 0.121494 -0.0472452 0.5 -2.15 -0.8 4.77083e-15 9.54166e-15 -0 0 -7.75 -0.2 17.4754 7.38768 -1.83841 1.13687e-13 -3.8 -1.13687e-13 1.58912e-15 6.36111e-15 0.0104343 0 -3.4 -1.13687e-13 -3.18067e-15 3.18055e-15 0.00207748 0.75 -1.75 -1.85 4.77083e-15 9.54166e-15 -0 0 -7.15 -1 24.4105 4.40719 -1.7741 -2.27374e-13 -3 2.27374e-13 1.13433e-07 -0.00111684 0.0058193 -1.13687e-13 -2.35 1.13687e-13 1.23987e-07 -0.00111342 0.00638028 8 7.10543e-15 -2.27374e-13 2.23558 -35.3816 0.147391 -1.13687e-13 -45 -1 -1.62729 48.9707 3.96341 -1.7053e-13 -41 -2 -3.52157 -1.00447 24.0467 0 -7.5 12.5 -2.98177e-16 1.59028e-15 -1.19271e-15 1.13687e-13 0 4 -1.41519 1.43213 -7.61118 -8 2.13163e-14 0 -17.6275 -3.56699 -64.9607 2.27374e-13 -45 -1 -0.833554 28.7071 4.04287 2.27374e-13 -41 -2 5.80991 -10.317 24.7981 0 -7.5 12.5 -1.21329e-20 2.42657e-20 -3.18055e-15 4.54747e-13 2.1684e-19 4 -8.95879 15.2001 74.5117 
-386.551 89.8295 1305.07 1.09936 -1.43301 149.336 1.7053e-13 8 2.27374e-13 11.3818 16.7277 9.19123 -1.13687e-13 8 -2.27374e-13 2.07821 6.60533 2.96575 -5.68434e-14 8 0 1.08129 3.29494 1.51204 -5.68434e-14 8 2.27374e-13 1.07902 3.28771 1.5088 1.7053e-13 17 0 -0.594909 6.2225 -2.22766 0 10.8 2.27374e-13 -1.02012 14.5834 -5.1798 5 17 2.27374e-13 -1.39118 -1.68743 1.28353 6.45 0 2.27374e-13 0.406939 1.4212 3.27454 6.45 0 0 22.6045 45.0308 16.6426 -2.84217e-14 -32.4 -2 -119.695 -40.0987 -160.011 3.41061e-13 -25.65 2 -3.26721 -3.90363 -12.0356 -0.5 -1.5 2.65 7.36456 -75.7629 141.219 -2.84217e-14 -3.8 3.7 0.0492123 3.95638 0.00755471 2.84217e-14 -3 2.7 -0.00269046 -0.179196 0.00477268 2.27374e-13 -1.9 1.6 3.18055e-15 -1.59028e-15 -0 -2.27374e-13 -8.3 1.9 -2.2727 8.74239 0.491136 0 -4.5 1.13687e-13 -70.2881 -0.00503634 0.00224938 2.27374e-13 -3.4 5.68434e-14 -52.2751 0.00426813 0.0103417 -0.25 -2.2 0.4 3.18055e-15 -1.59028e-15 -0 -2.27374e-13 -8.3 1 -16.6907 7.94863 2.29902 0 -4.65 2.84217e-14 -78.6141 -0.0228169 -0.0200835 1.13687e-13 -3.3 -2.84217e-14 -90.0002 5.1684e-14 -7.23576e-14 -0.5 -2.15 -0.8 3.18055e-15 -1.59028e-15 -0 -4.54747e-13 -7.75 -0.2 -71.5844 6.99344 13.0385 0 -3.8 -1.13687e-13 -1.77349 -0.000191692 -0.000606073 0 -3.4 5.68434e-14 -90.0002 -0.001297 -5.68524e-14 -0.75 -1.75 -1.85 3.18055e-15 -1.59028e-15 -0 0 -7.15 -1 -60.1472 14.1723 12.8524 0 -3 -5.68434e-14 -72.4876 -0.117584 -0.06364 5.68434e-14 -2.35 -5.68434e-14 -90.0002 6.85807e-15 1.03368e-14 -5 17 2.27374e-13 3.48332 -0.131147 5.1683 -6.45 5.68434e-14 -2.27374e-13 -1.65733 -0.818166 -5.21927 -6.45 -1.13687e-13 -2.27374e-13 -37.9848 -12.9767 -6.81286 2.84217e-14 -32.4 -2 -1.15001 -22.1341 3.99372 5.68434e-14 -25.65 2 -7.84887 -26.6038 25.4551 0.5 -1.5 2.65 5.68363 11.463 6.49392 0 -3.8 3.7 1.66411 30.6989 -0.605119 0 -3 2.7 0.308693 11.418 -0.136952 0 -1.9 1.6 3.18055e-15 3.18055e-15 1.59028e-15 0 -8.3 1.9 0.199244 4.03201 -0.0286377 0 -4.5 0 6.89737 0.211921 -0.0656763 0 -3.4 0 5.98557 0.171356 -0.0736795 0.25 -2.2 0.4 3.18055e-15 3.18055e-15 1.59028e-15 -1.13687e-13 -8.3 1 5.99825 5.93251 -0.554205 1.13687e-13 -4.65 -2.27374e-13 2.03835 0.100522 -0.0291971 0 -3.3 1.13687e-13 1.86457 0.0900717 -0.0304176 0.5 -2.15 -0.8 3.18055e-15 3.18055e-15 1.59028e-15 0 -7.75 -0.2 17.2752 7.40057 -1.80883 -1.13687e-13 -3.8 0 3.17882e-15 9.54166e-15 0.0104343 1.13687e-13 -3.4 1.13687e-13 -0 0 0.00207748 0.75 -1.75 -1.85 3.18055e-15 3.18055e-15 1.59028e-15 0 -7.15 -1 24.1469 4.7809 -1.83104 -1.13687e-13 -3 -1.13687e-13 1.13433e-07 -0.00111684 0.0058193 1.13687e-13 -2.35 1.13687e-13 1.23987e-07 -0.00111342 0.00638028 8 2.84217e-14 -2.27374e-13 2.249 -35.4165 0.0901134 -1.7053e-13 -45 -1 -1.47793 47.8412 3.71383 -1.7053e-13 -41 -2 -3.24144 -0.981745 24.1915 5.68434e-14 -7.5 12.5 4.96962e-16 -1.59028e-15 -7.95139e-16 5.68434e-14 -5.68434e-14 4 -1.64607 1.48323 -6.83695 -8 2.84217e-14 2.27374e-13 -17.3803 -3.46257 -64.9504 0 -45 -1 -0.813384 28.5201 3.9798 0 -41 -2 5.73109 -10.4031 24.7975 0 -7.5 12.5 1.81993e-20 1.97159e-20 -0 2.27374e-13 0 4 -8.998 15.1705 74.7635 
-386.357 89.8896 1305.1 1.11638 -1.39254 149.319 5.68434e-14 8 2.27374e-13 11.4093 16.6759 9.14298 -5.68434e-14 8 0 2.04897 6.60901 2.95497 5.68434e-14 8 2.27374e-13 1.06659 3.29495 1.50624 -5.68434e-14 8 4.54747e-13 1.06436 3.28772 1.50301 1.13687e-13 17 -2.27374e-13 -0.570063 6.23593 -2.05996 0 10.8 0 -0.989937 14.6115 -4.78627 5 17 0 -1.53232 -1.67721 1.05546 6.45 0 0 0.393831 1.41828 3.26674 6.45 -5.68434e-14 0 21.9831 45.2058 17.2437 2.84217e-14 -32.4 -2 -119.452 -40.6982 -160.73 3.41061e-13 -25.65 2 -1.41466 -5.81564 -11.8842 -0.5 -1.5 2.65 4.68769 -75.0022 138.953 -2.84217e-14 -3.8 3.7 0.0695496 5.5709 0.023592 0 -3 2.7 -0.00269046 -0.179196 0.00477268 -2.27374e-13 -1.9 1.6 -1.27222e-14 7.95139e-16 -1.59028e-15 0 -8.3 1.9 -2.42138 9.37423 0.509914 2.27374e-13 -4.5 -2.84217e-14 -70.9609 -0.00503634 0.00880978 0 -3.4 8.52651e-14 -53.0368 -0.00269206 0.0137629 -0.25 -2.2 0.4 -1.27222e-14 7.95139e-16 -1.59028e-15 -2.27374e-13 -8.3 1 -17.7766 8.1017 2.41479 0 -4.65 2.84217e-14 -78.1163 -0.0251287 -0.0264075 0 -3.3 0 -90.0002 -2.74323e-14 1.27222e-14 -0.5 -2.15 -0.8 -1.27222e-14 7.95139e-16 -1.59028e-15 -2.27374e-13 -7.75 -0.2 -73.2965 6.41367 13.1331 0 -3.8 0 -1.77349 -0.000191692 -0.000606073 0 -3.4 0 -90.0002 -0.001297 4.33351e-14 -0.75 -1.75 -1.85 -1.27222e-14 7.95139e-16 -1.59028e-15 0 -7.15 -1 -62.8182 13.1414 13.1423 0 -3 -5.68434e-14 -70.8717 -0.0778221 -0.0676221 5.68434e-14 -2.35 -1.13687e-13 -90.0002 -7.99114e-14 9.30312e-14 -5 17 2.27374e-13 3.45173 -0.0885729 5.16829 -6.45 5.68434e-14 0 -1.62608 -0.830637 -5.17981 -6.45 0 -2.27374e-13 -37.5988 -12.2384 -7.61259 8.52651e-14 -32.4 -2 -1.07975 -23.2585 3.91279 0 -25.65 2 -6.50378 -26.1178 25.1056 0.5 -1.5 2.65 3.97077 9.74966 6.34532 0 -3.8 3.7 1.50649 31.8168 -0.559499 -1.13687e-13 -3 2.7 0.260029 12.6948 -0.122059 0 -1.9 1.6 6.36111e-15 0 1.59028e-15 0 -8.3 1.9 0.173122 3.71434 -0.0219565 0 -4.5 1.13687e-13 5.041 0.181523 -0.0499173 -1.13687e-13 -3.4 -1.13687e-13 4.43569 0.151942 -0.0564351 0.25 -2.2 0.4 6.36111e-15 0 1.59028e-15 -2.27374e-13 -8.3 1 5.82579 5.64113 -0.517809 -1.13687e-13 -4.65 0 0.955232 0.0517081 -0.0129017 -1.13687e-13 -3.3 0 0.895989 0.0480334 -0.0132748 0.5 -2.15 -0.8 6.36111e-15 0 1.59028e-15 1.13687e-13 -7.75 -0.2 16.8568 7.3174 -1.74422 0 -3.8 0 -3.18113e-15 3.18055e-15 0.0104343 0 -3.4 2.27374e-13 -1.15323e-19 3.18055e-15 0.00207748 0.75 -1.75 -1.85 6.36111e-15 0 1.59028e-15 0 -7.15 -1 23.5583 5.04079 -1.83861 0 -3 0 1.13433e-07 -0.00111684 0.0058193 0 -2.35 2.27374e-13 1.23987e-07 -0.00111342 0.00638028 8 2.84217e-14 -2.27374e-13 2.31189 -35.3706 0.0691926 -1.7053e-13 -45 -1 -1.31099 46.4886 3.43223 -5.68434e-14 -41 -2 -2.93403 -0.9545 24.337 5.68434e-14 -7.5 12.5 -4.41391e-32 -3.18055e-15 -7.95139e-16 5.68434e-14 2.84217e-14 4 -1.90325 1.43368 -6.02297 -8 2.84217e-14 0 -17.1471 -3.32451 -64.9217 -2.27374e-13 -45 -1 -0.796155 28.2784 3.93993 0 -41 -2 5.70994 -10.4128 24.7634 -2.27374e-13 -7.5 12.5 -9.70628e-20 4.85314e-20 -0 2.27374e-13 1.73472e-18 4 -9.03474 15.1386 75.0506 
